<?xml version="1.0" encoding="iso-8859-1"?>
<!-- Generator: Adobe Illustrator 19.0.0, SVG Export Plug-In . SVG Version: 6.00 Build 0)  -->
<svg version="1.1" id="Capa_1" xmlns="http://www.w3.org/2000/svg" xmlns:xlink="http://www.w3.org/1999/xlink" x="0px" y="0px"
	 viewBox="0 0 380 380" style="enable-background:new 0 0 380 380;" xml:space="preserve">
<g id="XMLID_15_">
	<polygon id="XMLID_1089_" style="fill:#CDCDD0;" points="150,350 150,320 100,320 100,290 100,151.75 100,120 100,90 100,60 
		170,60 170,30 190,30 190,0 70,0 70,380 190,380 190,350 	"/>
	<polygon id="XMLID_1090_" style="fill:#ACABB1;" points="190,0 190,30 210,30 210,60 280,60 280,90 280,182.363 280,214.113 
		280,290 280,320 230,320 230,350 190,350 190,380 310,380 310,0 	"/>
	<polygon id="XMLID_1091_" style="fill:#FFFFFF;" points="170,60 100,60 100,90 280,90 280,60 210,60 	"/>
	<polygon id="XMLID_1092_" style="fill:#FFFFFF;" points="161.75,290 130,290 100,290 100,320 150,320 230,320 280,320 280,290 	"/>
	<path id="XMLID_1093_" style="fill:#78B9EB;" d="M100,90v30l60.561,20.982C168.453,134.146,178.739,130,190,130
		c21.941,0,40.206,15.708,44.186,36.49L280,182.363V90H100z"/>
	<path id="XMLID_1094_" style="fill:#64C37D;" d="M157.336,211.101C150.338,199.699,145,187.054,145,175
		c0-2.537,0.221-5.02,0.624-7.443L100,151.75V290h30L157.336,211.101z"/>
	<path id="XMLID_1095_" style="fill:#64C37D;" d="M190,250c0,0-4.527-4.026-10.707-10.635L161.75,290H280v-75.887l-49.922-17.296
		C218.404,224.749,190,250,190,250z"/>
	<path id="XMLID_1096_" style="fill:#99EFF2;" d="M130,290h31.75l17.543-50.635c-6.598-7.056-15.078-17.057-21.957-28.265L130,290z"
		/>
	<polygon id="XMLID_1097_" style="fill:#565659;" points="150,320 150,350 190,350 230,350 230,320 	"/>
	<polygon id="XMLID_1098_" style="fill:#565659;" points="170,60 210,60 210,30 190,30 170,30 	"/>
	<path id="XMLID_1099_" style="fill:#FFDA44;" d="M235,175c0,7.191-1.902,14.594-4.922,21.817L280,214.113v-31.75l-45.814-15.873
		C234.713,169.247,235,172.089,235,175z"/>
	<path id="XMLID_1100_" style="fill:#FFDA44;" d="M160.561,140.982L100,120v31.75l45.624,15.807
		C147.382,157.001,152.813,147.693,160.561,140.982z"/>
	<path id="XMLID_1101_" style="fill:#FF5023;" d="M145.624,167.557C145.221,169.98,145,172.463,145,175
		c0,12.054,5.338,24.699,12.336,36.101c6.879,11.208,15.359,21.208,21.957,28.265C185.473,245.974,190,250,190,250v-60
		c-8.284,0-15-6.716-15-15s6.716-15,15-15v-30c-11.261,0-21.547,4.146-29.439,10.982
		C152.813,147.693,147.382,157.001,145.624,167.557z"/>
	<path id="XMLID_1102_" style="fill:#BF3C1A;" d="M190,160c8.284,0,15,6.716,15,15s-6.716,15-15,15v60
		c0,0,28.404-25.251,40.078-53.183C233.098,189.594,235,182.191,235,175c0-2.911-0.287-5.753-0.814-8.51
		C230.206,145.708,211.941,130,190,130V160z"/>
	<circle id="XMLID_1103_" style="fill:#FFFFFF;" cx="190" cy="175" r="15"/>
</g>
<g>
</g>
<g>
</g>
<g>
</g>
<g>
</g>
<g>
</g>
<g>
</g>
<g>
</g>
<g>
</g>
<g>
</g>
<g>
</g>
<g>
</g>
<g>
</g>
<g>
</g>
<g>
</g>
<g>
</g>
</svg>
